Coordinates
version=1
nRows=28
nColumns=33
inDegrees=yes

Units are S.I. units (second, meters, Newtons, ...)
Angles are in degrees.

endheader
time	ground_thorax_rot_x	ground_thorax_rot_y	ground_thorax_rot_z	ground_thorax_tx	ground_thorax_ty	ground_thorax_tz	clav_prot_r	clav_elev_r	scapula_abduction_r	scapula_elevation_r	scapula_upward_rot_r	scapula_winging_r	shoulder_elv_r	plane_of_elev_r	axial_rot_r	elbow_flexion_r	pro_sup_r	wrist_flex_r	wrist_dev_r	clav_prot_l	clav_elev_l	scapula_abduction_l	scapula_elevation_l	scapula_upward_rot_l	scapula_winging_l	shoulder_elv_l	plane_of_elev_l	axial_rot_l	elbow_flexion_l	pro_sup_l	wrist_flex_l	wrist_dev_l	
5.0300	-37.454910	-14.846467	22.928198	-265.774903	829.106308	7.364759	7.769579	-45.000000	36.482819	-45.000000	-44.999992	3135.189271	-3707.549861	147.289636	-108.641855	1819.233521	92.925071	12.437749	2.567715	13.801359	37.139048	-34.869962	-45.000000	-45.000000	87.438236	74.138259	22.664992	-43.358344	1098.165419	95.797902	-1.519780	-13.020594	
5.0400	-37.415568	-14.913883	22.971906	-265.801517	828.947066	7.274757	7.831636	-45.000000	36.488459	-45.000000	-44.999985	3135.186803	-3707.560855	147.301720	-108.701995	1819.233385	92.936854	12.426245	2.569629	13.734485	37.122971	-34.808814	-45.000000	-45.000000	87.392466	74.140452	22.647666	-43.338149	1098.167812	95.768146	-1.525077	-13.006892	
5.0500	-37.367082	-15.002908	23.043725	-265.801476	828.790498	7.189123	7.902302	-45.000000	36.479109	-45.000000	-44.999973	3135.214342	-3707.540961	147.331358	-108.744887	1819.224918	92.958524	12.461530	2.566124	13.638074	37.129889	-34.722268	-45.000000	-45.000000	87.319479	74.174644	22.611822	-43.294698	1098.164517	95.742588	-1.542392	-12.967936	
5.0600	-37.333984	-15.077211	23.097501	-265.742974	828.640137	7.114124	7.938828	-45.000000	36.471374	-45.000000	-44.999952	3135.236895	-3707.532018	147.344383	-108.830445	1819.239121	92.994518	12.465060	2.561998	13.598788	37.136294	-34.671158	-45.000000	-45.000000	87.276088	74.182524	22.591528	-43.269412	1098.174630	95.718365	-1.544546	-12.944294	
5.0700	-37.311704	-15.144168	23.141672	-265.624173	828.495522	7.049691	7.958216	-45.000000	36.467149	-45.000000	-44.999913	3135.254870	-3707.532473	147.338918	-108.945709	1819.263198	93.048745	12.448751	2.556965	13.582017	37.136604	-34.640841	-45.000000	-45.000000	87.250188	74.175937	22.584157	-43.241232	1098.185986	95.699625	-1.539054	-12.925447	
5.0800	-37.298372	-15.212167	23.187096	-265.440038	828.356906	6.996783	7.965810	-45.000000	36.456715	-45.000000	-44.999845	3135.281595	-3707.527647	147.326680	-109.082524	1819.295235	93.124566	12.432456	2.549060	13.582194	37.141991	-34.623205	-45.000000	-45.000000	87.229184	74.171215	22.576138	-43.205405	1098.201696	95.687035	-1.530010	-12.905286	
5.0900	-37.295960	-15.274382	23.221331	-265.194109	828.223528	6.954668	7.966350	-45.000000	36.457066	-45.000000	-44.999722	3135.295138	-3707.538820	147.288543	-109.245428	1819.332426	93.222279	12.391153	2.540633	13.590202	37.130589	-34.621655	-45.000000	-45.000000	87.226550	74.151886	22.585896	-43.156406	1098.210535	95.683423	-1.514449	-12.889057	
5.1000	-37.299428	-15.339165	23.263680	-264.893984	828.094812	6.921935	7.971941	-45.000000	36.446141	-45.000000	-44.999502	3135.321416	-3707.542604	147.251305	-109.413181	1819.367500	93.342681	12.363996	2.529511	13.591366	37.125368	-34.622885	-45.000000	-45.000000	87.213018	74.149056	22.584472	-43.091443	1098.225310	95.687546	-1.503129	-12.869010	
5.1100	-37.309838	-15.395046	23.299277	-264.546505	827.970616	6.896984	7.973798	-45.000000	36.446151	-45.000000	-44.999106	3135.335483	-3707.560293	147.200132	-109.594852	1819.403176	93.485441	12.319807	2.518241	13.595042	37.109019	-34.630794	-45.000000	-45.000000	87.210987	74.136043	22.604452	-43.013246	1098.240265	95.701005	-1.489454	-12.853006	
5.1200	-37.320540	-15.445069	23.346020	-264.157598	827.851788	6.877971	7.979136	-45.000000	36.438538	-45.000000	-44.998404	3135.355175	-3707.567154	147.157898	-109.776300	1819.439242	93.650329	12.287836	2.503995	13.596147	37.097570	-34.643003	-45.000000	-45.000000	87.195087	74.132373	22.619173	-42.925262	1098.265555	95.722732	-1.480429	-12.835149	
5.1300	-37.329413	-15.495691	23.398544	-263.731204	827.739750	6.862655	7.977750	-45.000000	36.446900	-45.000000	-44.997127	3135.366437	-3707.576435	147.114972	-109.964634	1819.477330	93.835558	12.246761	2.488469	13.604309	37.085822	-34.648380	-45.000000	-45.000000	87.188689	74.118825	22.660267	-42.824788	1098.284199	95.756679	-1.468848	-12.816555	
5.1400	-37.338348	-15.544920	23.462208	-263.269125	827.636666	6.848646	7.981563	-45.000000	36.445527	-45.000000	-44.994891	3135.386697	-3707.571473	147.082055	-110.150701	1819.517617	94.041012	12.220326	2.470014	13.609304	37.083038	-34.656666	-45.000000	-45.000000	87.166736	74.118639	22.689996	-42.717418	1098.309555	95.803131	-1.463076	-12.798536	
5.1500	-37.344042	-15.602083	23.531567	-262.770557	827.545024	6.833533	7.981134	-45.000000	36.461400	-45.000000	-44.990746	3135.402291	-3707.562044	147.048428	-110.342619	1819.564723	94.265223	12.190229	2.448939	13.618465	37.083938	-34.657092	-45.000000	-45.000000	87.152659	74.114561	22.735897	-42.595890	1098.328607	95.867448	-1.457493	-12.778944	
5.1600	-37.350861	-15.658323	23.604311	-262.232517	827.467517	6.815199	7.993798	-45.000000	36.473766	-45.000000	-44.983708	3135.416898	-3707.544017	147.010214	-110.539004	1819.617266	94.506397	12.164446	2.424990	13.616510	37.079879	-34.668226	-45.000000	-45.000000	87.126677	74.123783	22.765726	-42.465316	1098.351234	95.951447	-1.458239	-12.762762	
5.1700	-37.354772	-15.727826	23.679380	-261.650066	827.406620	6.792052	8.009349	-45.000000	36.505762	-45.000000	-44.970024	3135.428489	-3707.525231	146.965563	-110.743511	1819.674050	94.763444	12.135990	2.399221	13.610469	37.076502	-34.668970	-45.000000	-45.000000	87.108046	74.138529	22.807220	-42.314828	1098.368907	96.061543	-1.461064	-12.745141	
5.1800	-37.357343	-15.798864	23.755433	-261.016976	827.364319	6.763212	8.040843	-45.000000	36.541545	-45.000000	-44.948514	3135.442174	-3707.502990	146.917162	-110.951009	1819.734858	95.037257	12.113761	2.371059	13.586037	37.066408	-34.673333	-45.000000	-45.000000	87.074782	74.173175	22.834994	-42.146384	1098.397769	96.200577	-1.473135	-12.731915	
5.1900	-37.351488	-15.878759	23.835088	-260.326433	827.341994	6.728595	8.077145	-45.000000	36.603573	-45.000000	-44.912634	3135.451369	-3707.481650	146.867297	-111.163708	1819.799611	95.328559	12.090107	2.340908	13.555174	37.054293	-34.669240	-45.000000	-45.000000	87.045960	74.209497	22.877223	-41.950765	1098.433022	96.374175	-1.490010	-12.717060	
5.2000	-37.343465	-15.955265	23.914060	-259.571753	827.340399	6.688872	8.123298	-45.000000	36.666537	-45.000000	-44.855101	3135.462292	-3707.457102	146.815100	-111.375146	1819.868651	95.640554	12.071734	2.308277	13.512234	37.037785	-34.682022	-45.000000	-45.000000	87.010422	74.250303	22.910899	-41.733393	1098.478235	96.587241	-1.514594	-12.705733	
5.2100	-37.330793	-16.033119	23.993364	-258.746535	827.359748	6.645294	8.170224	-45.000000	36.743856	-45.000000	-44.768510	3135.471108	-3707.437317	146.761896	-111.585524	1819.937296	95.975583	12.053394	2.274611	13.465893	37.020981	-34.706219	-45.000000	-45.000000	86.979237	74.285246	22.949615	-41.492296	1098.531308	96.844808	-1.544193	-12.694100	
5.2200	-37.315613	-16.110805	24.073795	-257.845083	827.399773	6.599497	8.217005	-45.000000	36.820878	-45.000000	-44.650077	3135.486106	-3707.415816	146.711741	-111.790251	1820.010345	96.334979	12.039801	2.238060	13.418721	37.004829	-34.748594	-45.000000	-45.000000	86.943760	74.318465	22.978506	-41.235179	1098.594599	97.149690	-1.580915	-12.686096	
5.2300	-37.293991	-16.186739	24.157985	-256.861960	827.459749	6.553266	8.261961	-45.000000	36.904123	-45.000000	-44.498642	3135.499580	-3707.393775	146.662106	-111.993451	1820.081787	96.717916	12.026255	2.199848	13.375225	36.990115	-34.803299	-45.000000	-45.000000	86.909876	74.345275	23.012227	-40.963948	1098.669429	97.503726	-1.623156	-12.679350	
5.2400	-37.270582	-16.259558	24.247185	-255.792107	827.538338	6.508386	8.297368	-45.000000	36.980482	-45.000000	-44.320687	3135.522237	-3707.369154	146.618518	-112.195073	1820.153467	97.122873	12.016499	2.159034	13.342566	36.979947	-34.871973	-45.000000	-45.000000	86.874480	74.370734	23.049032	-40.685226	1098.752559	97.908325	-1.670884	-12.675831	
5.2500	-37.250441	-16.314508	24.329011	-254.630662	827.633322	6.466536	8.321714	-45.000000	37.044782	-45.000000	-44.116471	3135.550200	-3707.346981	146.571168	-112.399490	1820.219599	97.550063	12.008697	2.117017	13.328299	36.974982	-34.955354	-45.000000	-45.000000	86.846000	74.393419	23.111333	-40.409079	1098.843539	98.366392	-1.723251	-12.676565	
5.2600	-37.238434	-16.353993	24.398948	-253.373500	827.741249	6.429276	8.320839	-45.000000	37.094181	-45.000000	-43.893581	3135.594120	-3707.325921	146.522444	-112.608112	1820.289781	97.999428	12.004069	2.071628	13.347655	36.979505	-35.054077	-45.000000	-45.000000	86.831687	74.409386	23.203645	-40.142675	1098.933439	98.882763	-1.778050	-12.681842	
5.2700	-37.235902	-16.372765	24.453441	-252.017068	827.857160	6.398033	8.310167	-45.000000	37.127068	-45.000000	-43.651547	3135.644315	-3707.310387	146.461940	-112.821329	1820.356559	98.470245	12.002849	2.024660	13.386442	36.987446	-35.171447	-45.000000	-45.000000	86.830371	74.422039	23.325959	-39.887633	1099.025933	99.459389	-1.835679	-12.692115	
5.2800	-37.237358	-16.390974	24.506016	-250.558603	827.974469	6.374102	8.284856	-45.000000	37.158949	-45.000000	-43.395544	3135.704606	-3707.298283	146.400925	-113.035544	1820.430547	98.957431	12.007320	1.973317	13.441006	36.999729	-35.302423	-45.000000	-45.000000	86.834938	74.430091	23.458582	-39.636085	1099.116330	100.093942	-1.894706	-12.704684	
5.2900	-37.236799	-16.413616	24.563746	-248.996050	828.085058	6.358622	8.260852	-45.000000	37.196657	-45.000000	-43.118107	3135.766429	-3707.290382	146.339392	-113.245886	1820.504827	99.454487	12.019596	1.918567	13.498175	37.012669	-35.442486	-45.000000	-45.000000	86.837241	74.436809	23.593862	-39.384008	1099.210610	100.779473	-1.956440	-12.719443	
5.3000	-37.224897	-16.463732	24.641953	-247.327925	828.179593	6.352500	8.226013	-45.000000	37.258778	-45.000000	-42.819376	3135.835422	-3707.279752	146.291735	-113.447892	1820.585760	99.952396	12.040741	1.858442	13.566100	37.032350	-35.580522	-45.000000	-45.000000	86.836504	74.434340	23.721063	-39.122595	1099.305501	101.507800	-2.018942	-12.732085	
